<?xml version="1.0" encoding="UTF-8" standalone="no"?>
<svg
   id="svg2"
   width="384"
   height="384"
   version="1.1"
   sodipodi:docname="Logo.svg"
   inkscape:version="1.3 (0e150ed6c4, 2023-07-21)"
   xmlns:inkscape="http://www.inkscape.org/namespaces/inkscape"
   xmlns:sodipodi="http://sodipodi.sourceforge.net/DTD/sodipodi-0.dtd"
   xmlns:xlink="http://www.w3.org/1999/xlink"
   xmlns="http://www.w3.org/2000/svg"
   xmlns:svg="http://www.w3.org/2000/svg">
  <defs
     id="defs1">
    <linearGradient
       id="linearGradient1"
       inkscape:collect="always">
      <stop
         style="stop-color:#00ccff;stop-opacity:1;"
         offset="0"
         id="stop1" />
      <stop
         style="stop-color:#1a76ff;stop-opacity:1;"
         offset="1"
         id="stop2" />
    </linearGradient>
    <radialGradient
       inkscape:collect="always"
       xlink:href="#linearGradient1"
       id="radialGradient2"
       cx="252"
       cy="131.9988"
       fx="252"
       fy="131.9988"
       r="72"
       gradientTransform="matrix(1,0,0,1.222239,0,-29.335275)"
       gradientUnits="userSpaceOnUse" />
  </defs>
  <sodipodi:namedview
     id="namedview1"
     pagecolor="#02334b"
     bordercolor="#000000"
     borderopacity="1"
     inkscape:showpageshadow="2"
     inkscape:pageopacity="0.0"
     inkscape:pagecheckerboard="true"
     inkscape:deskcolor="#02334b"
     inkscape:zoom="1.0037739"
     inkscape:cx="204.22926"
     inkscape:cy="291.40029"
     inkscape:window-width="1920"
     inkscape:window-height="994"
     inkscape:window-x="0"
     inkscape:window-y="0"
     inkscape:window-maximized="1"
     inkscape:current-layer="svg2"
     showgrid="true">
    <inkscape:grid
       id="grid1"
       units="px"
       originx="0"
       originy="0"
       spacingx="1"
       spacingy="1"
       empcolor="#0099e5"
       empopacity="0.30196078"
       color="#0099e5"
       opacity="0.14901961"
       empspacing="5"
       dotted="false"
       gridanglex="30"
       gridanglez="30"
       visible="true" />
  </sodipodi:namedview>
  <path
     id="rect4140"
     style="fill:#181b28;fill-opacity:1"
     d="M 170.93555 0 L 170 38.921875 L 170 229.91016 L 230 220.5625 L 230 171.72266 L 272.09766 231.86328 L 381.31641 384 L 384 384 L 384 0 L 170.93555 0 z" />
  <path
     id="path4140"
     style="opacity:0.05"
     d="m 220,48.99759 -40,3.9784 0,170.25601 40,-6.232 0,-72 56,80 47.544,-16 -63.544,-72 64,-72.00001 -48,-16 L 220,129 220,48.99759 Z" />
  <path
     id="path4141"
     style="opacity:0.05"
     d="m 220,47.99759 -40,3.9784 0,170.25601 40,-6.232 0,-72 56,80 47.544,-16 -63.544,-72 64,-72.00001 -48,-16 L 220,128 220,47.99759 Z" />
  <path
     id="path4139"
     style="opacity:0.05"
     d="m 220,46.99759 -40,3.9784 0,170.25601 40,-6.232 0,-72 56,80 47.544,-16 -63.544,-72 64,-72.00001 -48,-16 L 220,127 220,46.99759 Z" />
  <path
     id="path4137"
     style="opacity:0.05"
     d="m 220,45.99759 -40,3.9784 0,170.25601 40,-6.232 0,-72 56,80 47.544,-16 -63.544,-72 64,-72.00001 -48,-16 L 220,126 220,45.99759 Z" />
  <path
     id="path4135"
     style="opacity:0.05"
     d="m 220,44.99759 -40,3.9784 0,170.25601 40,-6.232 0,-72 56,80 47.544,-16 -63.544,-72 64,-72.00001 -48,-16 L 220,125 220,44.99759 Z" />
  <path
     id="path14"
     style="fill:url(#radialGradient2)"
     d="m 220,43.99759 -40,3.9784 0,170.25601 40,-6.232 0,-72 56,80 47.544,-16 -63.544,-72 64,-72.00001 -48,-16 L 220,124 220,43.99759 Z" />
</svg>
