<?xml version="1.0" encoding="UTF-8" standalone="no"?>
<svg
   sodipodi:docname="other.svg"
   inkscape:version="1.3 (0e150ed6c4, 2023-07-21)"
   id="svg1699"
   version="1.1"
   viewBox="0 0 10 10"
   height="10mm"
   width="10mm"
   xmlns:inkscape="http://www.inkscape.org/namespaces/inkscape"
   xmlns:sodipodi="http://sodipodi.sourceforge.net/DTD/sodipodi-0.dtd"
   xmlns:xlink="http://www.w3.org/1999/xlink"
   xmlns="http://www.w3.org/2000/svg"
   xmlns:svg="http://www.w3.org/2000/svg"
   xmlns:rdf="http://www.w3.org/1999/02/22-rdf-syntax-ns#"
   xmlns:cc="http://creativecommons.org/ns#"
   xmlns:dc="http://purl.org/dc/elements/1.1/">
  <defs
     id="defs1693">
    <linearGradient
       id="linearGradient1028"
       x1="16"
       x2="16"
       y1="1091.5"
       y2="1121.5"
       gradientUnits="userSpaceOnUse">
      <stop
         stop-color="#9575cd"
         offset="0"
         id="stop1024"
         style="stop-color:#7d56c3;stop-opacity:1" />
      <stop
         stop-color="#cd75bc"
         offset="1"
         id="stop1026"
         style="stop-color:#963683;stop-opacity:1" />
    </linearGradient>
    <linearGradient
       id="a-9"
       x1="16"
       x2="16"
       y1="1091.5"
       y2="1121.5"
       gradientUnits="userSpaceOnUse">
      <stop
         stop-color="#9575cd"
         offset="0"
         id="stop1052" />
      <stop
         stop-color="#cd75bc"
         offset="1"
         id="stop1054" />
    </linearGradient>
    <radialGradient
       gradientUnits="userSpaceOnUse"
       r="11"
       fy="12"
       fx="102"
       cy="12"
       cx="102"
       id="radialGradient910"
       xlink:href="#linearGradient4"
       inkscape:collect="always"
       gradientTransform="matrix(0.40909092,0,0,0.40909092,62.001872,82.009896)" />
    <linearGradient
       id="linearGradient4"
       inkscape:collect="always">
      <stop
         id="stop3"
         offset="0"
         style="stop-color:#07a8f9;stop-opacity:1;" />
      <stop
         id="stop4"
         offset="1"
         style="stop-color:#07a8f9;stop-opacity:0.01;" />
    </linearGradient>
  </defs>
  <sodipodi:namedview
     inkscape:document-rotation="0"
     inkscape:window-maximized="1"
     inkscape:window-y="0"
     inkscape:window-x="0"
     inkscape:window-height="994"
     inkscape:window-width="1920"
     showgrid="true"
     inkscape:current-layer="layer1"
     inkscape:document-units="mm"
     inkscape:cy="6.2755723"
     inkscape:cx="-28.461046"
     inkscape:zoom="5.6568546"
     inkscape:pageshadow="2"
     inkscape:pageopacity="0"
     borderopacity="1"
     bordercolor="#ff0e0e"
     pagecolor="#000000"
     id="base"
     inkscape:pagecheckerboard="true"
     inkscape:showpageshadow="false"
     inkscape:deskcolor="#000000">
    <inkscape:grid
       type="xygrid"
       id="grid844"
       originx="0"
       originy="0"
       spacingy="1"
       spacingx="1"
       units="mm"
       visible="true" />
  </sodipodi:namedview>
  <metadata
     id="metadata1696">
    <rdf:RDF>
      <cc:Work
         rdf:about="">
        <dc:format>image/svg+xml</dc:format>
        <dc:type
           rdf:resource="http://purl.org/dc/dcmitype/StillImage" />
      </cc:Work>
    </rdf:RDF>
  </metadata>
  <g
     transform="translate(-98.729144,-81.918987)"
     id="layer1"
     inkscape:groupmode="layer"
     inkscape:label="Layer 1">
    <g
       id="g1">
      <rect
         style="color:#000000;display:inline;overflow:visible;visibility:visible;opacity:0.01;fill:#000000;fill-opacity:0.00392157;stroke:none;stroke-width:1.87498;marker:none;enable-background:accumulate"
         id="rect4570-7-1"
         width="9"
         height="9"
         x="99.229149"
         y="82.418983" />
      <path
         id="path4106-3-4"
         style="color:#000000;display:inline;overflow:visible;visibility:visible;fill:url(#radialGradient910);fill-opacity:1;fill-rule:evenodd;stroke:none;stroke-width:1.22727;marker:none;enable-background:accumulate"
         d="m 100.45642,82.418987 h 6.54546 c 0.81819,0 1.22727,0.409091 1.22727,1.227273 v 6.545454 c 0,0.818181 -0.40908,1.227273 -1.22727,1.227273 h -6.54546 c -0.818179,0 -1.227271,-0.409092 -1.227271,-1.227273 V 83.64626 c 0,-0.818182 0.409092,-1.227273 1.227271,-1.227273 z m 1.84392,4.314728 c -0.22677,0.22025 -0.49475,0.32012 -0.82118,0.32012 -0.32641,0 -0.59565,-0.10263 -0.8224,-0.322882 -0.35659,0.128326 -0.782998,0.454877 -0.783503,1.025212 l -9e-4,1.06383 c -2.25e-4,0.192866 0.143493,0.348992 0.321203,0.348992 h 2.57142 c 0.17805,0 0.32141,-0.157548 0.32141,-0.353241 v -1.059697 c 0,-0.489822 -0.35429,-0.902782 -0.78599,-1.026582 z m 0.2382,-1.096811 c -0.002,1.410803 -2.11716,1.410803 -2.11927,0 -0.002,-1.415024 2.12141,-1.415024 2.11927,0 z m 2.30994,-0.618866 c -0.10571,-0.06213 -1.7622,0.911579 -1.7622,1.035852 0,0.124275 1.65649,1.097367 1.7622,1.035229 0.0377,-0.0222 0.057,-0.307834 0.0678,-0.63972 h 1.63165 V 85.65776 h -1.63165 c -0.0109,-0.33176 -0.0301,-0.617508 -0.0678,-0.639722 z m 0.9756,2.076734 c -0.0377,0.0222 -0.057,0.308463 -0.0678,0.64034 h -1.63163 v 0.791014 h 1.63163 c 0.0109,0.331883 0.0301,0.617505 0.0678,0.639718 0.10577,0.06214 1.7622,-0.910947 1.7622,-1.035225 0,-0.124276 -1.65643,-1.097986 -1.7622,-1.035847 z"
         inkscape:connector-curvature="0" />
      <path
         style="color:#000000;overflow:visible;opacity:0;fill:none;fill-opacity:1;stroke-width:0.333334"
         id="path945"
         overflow="visible"
         d="m 103.72914,81.918987 c -2.75893,0 -4.999996,2.24107 -4.999996,5 0,2.75893 2.241066,5 4.999996,5 2.75894,0 5,-2.24107 5,-5 0,-2.75893 -2.24106,-5 -5,-5 z"
         inkscape:connector-curvature="0" />
      <rect
         style="color:#000000;display:inline;overflow:visible;visibility:visible;opacity:0.01;fill:#000000;fill-opacity:0.00392157;stroke:none;stroke-width:1.87501;marker:none;enable-background:accumulate"
         id="rect4570"
         width="9"
         height="9"
         x="99.229149"
         y="82.418983" />
    </g>
  </g>
</svg>
