<?xml version="1.0" encoding="UTF-8" standalone="no"?>
<svg
   sodipodi:docname="restart_primary.svg"
   inkscape:version="1.3 (0e150ed6c4, 2023-07-21)"
   id="svg1699"
   version="1.1"
   viewBox="0 0 10 10"
   height="10mm"
   width="10mm"
   xmlns:inkscape="http://www.inkscape.org/namespaces/inkscape"
   xmlns:sodipodi="http://sodipodi.sourceforge.net/DTD/sodipodi-0.dtd"
   xmlns:xlink="http://www.w3.org/1999/xlink"
   xmlns="http://www.w3.org/2000/svg"
   xmlns:svg="http://www.w3.org/2000/svg"
   xmlns:rdf="http://www.w3.org/1999/02/22-rdf-syntax-ns#"
   xmlns:cc="http://creativecommons.org/ns#"
   xmlns:dc="http://purl.org/dc/elements/1.1/">
  <defs
     id="defs1693">
    <radialGradient
       gradientUnits="userSpaceOnUse"
       r="11"
       fy="12"
       fx="72"
       cy="12"
       cx="72"
       id="radialGradient902"
       xlink:href="#linearGradient4"
       inkscape:collect="always"
       gradientTransform="matrix(0.40909109,0,0,0.40909109,74.24119,82.026601)" />
    <linearGradient
       id="linearGradient4"
       inkscape:collect="always">
      <stop
         id="stop3"
         offset="0"
         style="stop-color:#07a8f9;stop-opacity:1;" />
      <stop
         id="stop4"
         offset="1"
         style="stop-color:#07a8f9;stop-opacity:0.01;" />
    </linearGradient>
  </defs>
  <sodipodi:namedview
     inkscape:document-rotation="0"
     inkscape:window-maximized="1"
     inkscape:window-y="0"
     inkscape:window-x="0"
     inkscape:window-height="994"
     inkscape:window-width="1920"
     showgrid="true"
     inkscape:current-layer="layer1"
     inkscape:document-units="mm"
     inkscape:cy="10.038391"
     inkscape:cx="34.976532"
     inkscape:zoom="7.919596"
     inkscape:pageshadow="2"
     inkscape:pageopacity="0"
     borderopacity="1"
     bordercolor="#ff1919"
     pagecolor="#000000"
     id="base"
     inkscape:pagecheckerboard="true"
     inkscape:showpageshadow="false"
     inkscape:deskcolor="#000000">
    <inkscape:grid
       type="xygrid"
       id="grid844"
       originx="0.033407999"
       originy="-0.016705"
       spacingy="1"
       spacingx="1"
       units="mm"
       visible="true" />
  </sodipodi:namedview>
  <metadata
     id="metadata1696">
    <rdf:RDF>
      <cc:Work
         rdf:about="">
        <dc:format>image/svg+xml</dc:format>
        <dc:type
           rdf:resource="http://purl.org/dc/dcmitype/StillImage" />
      </cc:Work>
    </rdf:RDF>
  </metadata>
  <g
     transform="translate(-98.695736,-81.935692)"
     id="layer1"
     inkscape:groupmode="layer"
     inkscape:label="Layer 1">
    <g
       id="g2">
      <g
         id="g1">
        <circle
           style="opacity:0;fill:none;fill-opacity:1;stroke-width:0.333334"
           id="circle955"
           r="5"
           cy="-86.935692"
           cx="103.69574"
           transform="scale(1,-1)" />
        <rect
           style="color:#000000;display:inline;overflow:visible;visibility:visible;opacity:0.01;fill:#000000;fill-opacity:0.00392157;stroke:none;stroke-width:1.87499;marker:none;enable-background:accumulate"
           id="rect4570-72"
           width="9"
           height="9"
           x="99.19574"
           y="82.435692" />
        <path
           id="path4984-0-94-2"
           style="color:#000000;display:inline;overflow:visible;visibility:visible;fill:url(#radialGradient902);fill-opacity:1;fill-rule:evenodd;stroke:none;stroke-width:1.22729;marker:none;enable-background:accumulate"
           d="m 100.42301,82.435692 h 6.54545 c 0.81819,0 1.22728,0.409091 1.22728,1.227273 v 6.545456 c 0,0.818182 -0.40909,1.227271 -1.22728,1.227271 h -6.54545 c -0.818185,0 -1.227274,-0.409089 -1.227274,-1.227271 v -6.545456 c 0,-0.818182 0.409089,-1.227273 1.227274,-1.227273 z m 3.26771,1.673688 c -0.72354,-3.09e-4 -1.44709,0.274654 -1.997,0.825548 -1.09972,1.101759 -1.10028,2.898725 0,4.000903 1.10037,1.102132 2.89419,1.103678 3.994,0.0019 l -0.54491,-0.546763 c -0.80534,0.806691 -2.09784,0.806511 -2.90354,-2.79e-4 -0.80567,-0.807084 -0.80606,-2.101858 -4.5e-4,-2.908552 0.78011,-0.781426 2.01598,-0.803212 2.82505,-0.07031 -0.32243,0.33698 -0.59988,0.64901 -0.58572,0.705636 0.0356,0.142542 2.26865,0.700797 2.37555,0.593889 0.10674,-0.106958 -0.45152,-2.340598 -0.59406,-2.376238 -0.0534,-0.01332 -0.33587,0.236491 -0.64852,0.532358 -0.54005,-0.502813 -1.22929,-0.757394 -1.92042,-0.757735 z"
           inkscape:connector-curvature="0" />
      </g>
    </g>
  </g>
</svg>
