<?xml version="1.0" encoding="UTF-8" standalone="no"?>
<svg
   sodipodi:docname="shutdown_primary.svg"
   inkscape:version="1.3 (0e150ed6c4, 2023-07-21)"
   id="svg1073"
   version="1.1"
   viewBox="0 0 10 10"
   height="10mm"
   width="10mm"
   xmlns:inkscape="http://www.inkscape.org/namespaces/inkscape"
   xmlns:sodipodi="http://sodipodi.sourceforge.net/DTD/sodipodi-0.dtd"
   xmlns:xlink="http://www.w3.org/1999/xlink"
   xmlns="http://www.w3.org/2000/svg"
   xmlns:svg="http://www.w3.org/2000/svg"
   xmlns:rdf="http://www.w3.org/1999/02/22-rdf-syntax-ns#"
   xmlns:cc="http://creativecommons.org/ns#"
   xmlns:dc="http://purl.org/dc/elements/1.1/">
  <defs
     id="defs1067">
    <radialGradient
       gradientUnits="userSpaceOnUse"
       r="11"
       fy="12"
       fx="12"
       cy="12"
       cx="12"
       id="radialGradient886"
       xlink:href="#linearGradient4"
       inkscape:collect="always"
       gradientTransform="matrix(0.40909098,0,0,0.40909098,-9.1917409,135.51421)" />
    <linearGradient
       id="linearGradient4"
       inkscape:collect="always">
      <stop
         id="stop3"
         offset="0"
         style="stop-color:#07a8f9;stop-opacity:1;" />
      <stop
         id="stop4"
         offset="1"
         style="stop-color:#07a8f9;stop-opacity:0.01;" />
    </linearGradient>
  </defs>
  <sodipodi:namedview
     inkscape:document-rotation="0"
     inkscape:window-maximized="1"
     inkscape:window-y="0"
     inkscape:window-x="0"
     inkscape:window-height="994"
     inkscape:window-width="1920"
     showgrid="true"
     inkscape:current-layer="layer1"
     inkscape:document-units="mm"
     inkscape:cy="36.405403"
     inkscape:cx="12.292733"
     inkscape:zoom="5.2876767"
     inkscape:pageshadow="2"
     inkscape:pageopacity="0"
     borderopacity="1"
     bordercolor="#ff0a0a"
     pagecolor="#000000"
     id="base"
     inkscape:pagecheckerboard="true"
     inkscape:showpageshadow="false"
     inkscape:deskcolor="#000000">
    <inkscape:grid
       type="xygrid"
       id="grid873"
       originx="9.8000002e-07"
       originy="2e-07"
       spacingy="1"
       spacingx="1"
       units="mm"
       visible="true" />
  </sodipodi:namedview>
  <metadata
     id="metadata1070">
    <rdf:RDF>
      <cc:Work
         rdf:about="">
        <dc:format>image/svg+xml</dc:format>
        <dc:type
           rdf:resource="http://purl.org/dc/dcmitype/StillImage" />
      </cc:Work>
    </rdf:RDF>
  </metadata>
  <g
     transform="translate(9.28265,-135.4233)"
     id="layer1"
     inkscape:groupmode="layer"
     inkscape:label="Layer 1">
    <g
       id="g1">
      <path
         style="color:#000000;overflow:visible;opacity:0;fill:none;fill-opacity:1;stroke-width:0.333334"
         id="path945"
         overflow="visible"
         d="m -4.28265,135.4233 c -2.7589344,0 -5,2.24107 -5,5 0,2.75893 2.2410656,5 5,5 2.7589344,0 5,-2.24107 5,-5 0,-2.75893 -2.2410656,-5 -5,-5 z"
         inkscape:connector-curvature="0" />
      <rect
         style="color:#000000;display:inline;overflow:visible;visibility:visible;opacity:0.01;fill:#000000;fill-opacity:0.00392157;stroke:none;stroke-width:1.87501;marker:none;enable-background:accumulate"
         id="rect4570"
         width="9"
         height="9"
         x="-8.78265"
         y="135.92329" />
      <path
         id="rect4747-1-3-0"
         style="color:#000000;display:inline;overflow:visible;visibility:visible;fill:url(#radialGradient886);fill-opacity:1;fill-rule:evenodd;stroke:none;stroke-width:3.68165;marker:none;enable-background:accumulate"
         d="m -4.6683551,137.08045 h 0.7714338 v 2.82857 h -0.7714338 z m -1.0283707,0.90116 c -0.4302019,0.24794 -0.7884624,0.60557 -1.0368401,1.03502 -0.779206,1.34724 -0.3127844,3.08037 1.0368401,3.85821 1.3496305,0.77783 3.0858081,0.31224 3.8650157,-1.03502 0.7792102,-1.34725 0.3127812,-3.08037 -1.0368478,-3.85821 l -0.3841858,0.66768 c 0.9882551,0.56956 1.3227466,1.82051 0.7521786,2.80703 -0.5705702,0.9865 -1.8237211,1.3204 -2.8119718,0.75084 -0.9882543,-0.56956 -1.3227409,-1.82051 -0.7521761,-2.80702 0.1806317,-0.31232 0.4393145,-0.57054 0.7521761,-0.75085 z m -1.8586513,-2.05831 h 6.5454564 c 0.81818301,0 1.2272707,0.40909 1.2272707,1.22727 v 6.54546 c 0,0.81818 -0.40908769,1.22727 -1.2272707,1.22727 h -6.5454564 c -0.8181817,0 -1.2272729,-0.40909 -1.2272729,-1.22727 v -6.54546 c 0,-0.81818 0.4090912,-1.22727 1.2272729,-1.22727 z"
         inkscape:connector-curvature="0" />
    </g>
  </g>
</svg>
