<?xml version="1.0" encoding="UTF-8" standalone="no"?>
<svg
   sodipodi:docname="other.svg"
   inkscape:version="1.3 (0e150ed6c4, 2023-07-21)"
   id="svg1699"
   version="1.1"
   viewBox="0 0 10 10"
   height="10mm"
   width="10mm"
   xmlns:inkscape="http://www.inkscape.org/namespaces/inkscape"
   xmlns:sodipodi="http://sodipodi.sourceforge.net/DTD/sodipodi-0.dtd"
   xmlns:xlink="http://www.w3.org/1999/xlink"
   xmlns="http://www.w3.org/2000/svg"
   xmlns:svg="http://www.w3.org/2000/svg"
   xmlns:rdf="http://www.w3.org/1999/02/22-rdf-syntax-ns#"
   xmlns:cc="http://creativecommons.org/ns#"
   xmlns:dc="http://purl.org/dc/elements/1.1/">
  <defs
     id="defs1693">
    <linearGradient
       id="linearGradient1028"
       x1="16"
       x2="16"
       y1="1091.5"
       y2="1121.5"
       gradientUnits="userSpaceOnUse">
      <stop
         stop-color="#9575cd"
         offset="0"
         id="stop1024"
         style="stop-color:#7d56c3;stop-opacity:1" />
      <stop
         stop-color="#cd75bc"
         offset="1"
         id="stop1026"
         style="stop-color:#963683;stop-opacity:1" />
    </linearGradient>
    <linearGradient
       id="a-9"
       x1="16"
       x2="16"
       y1="1091.5"
       y2="1121.5"
       gradientUnits="userSpaceOnUse">
      <stop
         stop-color="#9575cd"
         offset="0"
         id="stop1052" />
      <stop
         stop-color="#cd75bc"
         offset="1"
         id="stop1054" />
    </linearGradient>
    <linearGradient
       gradientUnits="userSpaceOnUse"
       y2="31"
       y1="1"
       x2="16"
       x1="16"
       id="linearGradient1035">
      <stop
         id="stop1031"
         offset="0"
         stop-color="#f4282c"
         style="stop-color:#6600ff;stop-opacity:1" />
      <stop
         id="stop1033"
         offset="1"
         stop-color="#fac136"
         style="stop-color:#d1b3ff;stop-opacity:1" />
    </linearGradient>
    <radialGradient
       gradientUnits="userSpaceOnUse"
       r="11"
       fy="12"
       fx="132"
       cy="12"
       cx="132"
       id="radialGradient918"
       xlink:href="#linearGradient4"
       inkscape:collect="always"
       gradientTransform="matrix(0.40909102,0,0,0.40909101,49.728723,82.009896)" />
    <linearGradient
       id="linearGradient4"
       inkscape:collect="always">
      <stop
         id="stop3"
         offset="0"
         style="stop-color:#07a8f9;stop-opacity:1;" />
      <stop
         id="stop4"
         offset="1"
         style="stop-color:#07a8f9;stop-opacity:0.01;" />
    </linearGradient>
  </defs>
  <sodipodi:namedview
     inkscape:document-rotation="0"
     inkscape:window-maximized="1"
     inkscape:window-y="0"
     inkscape:window-x="0"
     inkscape:window-height="994"
     inkscape:window-width="1920"
     showgrid="true"
     inkscape:current-layer="layer1"
     inkscape:document-units="mm"
     inkscape:cy="28.187498"
     inkscape:cx="4.2499997"
     inkscape:zoom="8.0000005"
     inkscape:pageshadow="2"
     inkscape:pageopacity="0"
     borderopacity="1"
     bordercolor="#ff0e0e"
     pagecolor="#000000"
     id="base"
     inkscape:pagecheckerboard="true"
     inkscape:showpageshadow="false"
     inkscape:deskcolor="#000000">
    <inkscape:grid
       type="xygrid"
       id="grid844"
       originx="0"
       originy="0"
       spacingy="1"
       spacingx="1"
       units="mm"
       visible="true" />
  </sodipodi:namedview>
  <metadata
     id="metadata1696">
    <rdf:RDF>
      <cc:Work
         rdf:about="">
        <dc:format>image/svg+xml</dc:format>
        <dc:type
           rdf:resource="http://purl.org/dc/dcmitype/StillImage" />
      </cc:Work>
    </rdf:RDF>
  </metadata>
  <g
     transform="translate(-98.729144,-81.918987)"
     id="layer1"
     inkscape:groupmode="layer"
     inkscape:label="Layer 1">
    <g
       id="g1">
      <circle
         style="opacity:0;fill:none;fill-opacity:1;stroke-width:0.333334"
         id="circle955"
         r="5"
         cy="-86.918983"
         cx="103.72914"
         transform="scale(1,-1)" />
      <path
         id="path9180-6-2"
         style="color:#bebebe;fill:url(#radialGradient918);fill-opacity:1;fill-rule:evenodd;stroke-width:0.409123"
         d="m 103.18097,84.764387 c -0.002,1.410282 -2.11661,1.410282 -2.11925,0 -0.002,-1.415546 2.1219,-1.415546 2.11925,0 z m -0.23821,1.096811 c -0.22673,0.220254 -0.49473,0.320115 -0.82117,0.320115 -0.3264,0 -0.59568,-0.102622 -0.82235,-0.322875 -0.35664,0.128327 -0.783,0.454877 -0.78354,1.025207 l -8.4e-4,1.063834 c 0,0.192862 0.14371,0.348992 0.32144,0.348992 h 2.63358 c 0.0284,-0.181476 0.12013,-0.331844 0.25927,-0.459202 v -0.953712 c 0,-0.489828 -0.35431,-0.902789 -0.78596,-1.026589 z m 3.45255,0.739992 c -0.002,1.410281 -2.11669,1.410281 -2.11934,0 -0.002,-1.415543 2.12197,-1.415543 2.11934,0 z m -0.2383,1.096809 c -0.22671,0.220253 -0.49472,0.320122 -0.82113,0.320122 -0.32643,0 -0.59562,-0.102628 -0.82238,-0.322882 -0.35661,0.128331 -0.783,0.454876 -0.78356,1.025208 l -8.4e-4,1.063836 c 0,0.192866 0.14376,0.34899 0.32143,0.34899 h 2.57144 c 0.17808,0 0.32143,-0.157546 0.32143,-0.35324 v -1.059692 c 0,-0.489825 -0.35431,-0.90279 -0.78602,-1.026585 z m -5.70099,-5.279012 h 6.54542 c 0.81817,0 1.22729,0.409091 1.22729,1.227273 v 6.545456 c 0,0.818183 -0.40912,1.227271 -1.22729,1.227271 h -6.54542 c -0.818168,0 -1.227291,-0.409088 -1.227291,-1.227271 V 83.64626 c 0,-0.818182 0.409123,-1.227273 1.227291,-1.227273 z"
         inkscape:connector-curvature="0" />
    </g>
  </g>
</svg>
