<?xml version="1.0" encoding="UTF-8" standalone="no"?>
<svg
   id="svg2"
   width="384"
   height="384"
   version="1.1"
   sodipodi:docname="KDE.svg"
   inkscape:version="1.3 (0e150ed6c4, 2023-07-21)"
   xmlns:inkscape="http://www.inkscape.org/namespaces/inkscape"
   xmlns:sodipodi="http://sodipodi.sourceforge.net/DTD/sodipodi-0.dtd"
   xmlns:xlink="http://www.w3.org/1999/xlink"
   xmlns="http://www.w3.org/2000/svg"
   xmlns:svg="http://www.w3.org/2000/svg">
  <defs
     id="defs1">
    <linearGradient
       id="linearGradient1"
       inkscape:collect="always">
      <stop
         style="stop-color:#0586c7;stop-opacity:1;"
         offset="0"
         id="stop1" />
      <stop
         style="stop-color:#2ad4ff;stop-opacity:1"
         offset="0.52359849"
         id="stop3" />
      <stop
         style="stop-color:#1a76ff;stop-opacity:1;"
         offset="1"
         id="stop2" />
    </linearGradient>
    <radialGradient
       inkscape:collect="always"
       xlink:href="#linearGradient1"
       id="radialGradient2"
       cx="192"
       cy="192"
       fx="192"
       fy="192"
       r="120"
       gradientUnits="userSpaceOnUse" />
  </defs>
  <sodipodi:namedview
     id="namedview1"
     pagecolor="#02334b"
     bordercolor="#000000"
     borderopacity="1"
     inkscape:showpageshadow="2"
     inkscape:pageopacity="0.0"
     inkscape:pagecheckerboard="true"
     inkscape:deskcolor="#02334b"
     inkscape:zoom="0.35488767"
     inkscape:cx="247.96579"
     inkscape:cy="46.493585"
     inkscape:window-width="1920"
     inkscape:window-height="994"
     inkscape:window-x="0"
     inkscape:window-y="0"
     inkscape:window-maximized="1"
     inkscape:current-layer="svg2"
     showgrid="true">
    <inkscape:grid
       id="grid1"
       units="px"
       originx="0"
       originy="0"
       spacingx="1"
       spacingy="1"
       empcolor="#0099e5"
       empopacity="0.30196078"
       color="#0099e5"
       opacity="0.14901961"
       empspacing="5"
       dotted="false"
       gridanglex="30"
       gridanglez="30"
       visible="true" />
  </sodipodi:namedview>
  <path
     id="path4136"
     style="fill:url(#radialGradient2);fill-opacity:1"
     d="m 179.70312,72 c -1.048,0 -1.90903,0.70424 -2.125,1.6875 l -6.89062,31.89062 c -8.46161,2.04099 -16.42515,5.26538 -23.71875,9.48438 L 117.42188,97.82812 c -0.86401,-0.50512 -1.98313,-0.42533 -2.70313,0.26563 l -17.04688,16.39063 c -0.73976,0.71424 -0.85478,1.84553 -0.28125,2.6875 l 18.92188,27.6875 c -4.5835,7.49053 -8.03565,15.68253 -10.07812,24.42187 l -32.46876,7.57813 C 72.77926,177.08581 72,177.92494 72,178.90625 V 192 205.09375 c 0,0.98131 0.77926,1.82043 1.76562,2.04687 l 32.46876,7.57813 c 2.04247,8.73935 5.49461,16.93136 10.07812,24.42187 l -18.92188,27.6875 c -0.5736,0.84196 -0.45851,1.9733 0.28125,2.6875 l 17.04688,16.39063 c 0.72,0.69096 1.83913,0.77083 2.70313,0.26563 l 29.54687,-17.23438 c 7.2936,4.219 15.25714,7.44338 23.71875,9.48438 l 6.89062,31.89062 c 0.21591,0.98327 1.07701,1.6875 2.125,1.6875 H 192 204.29688 c 1.048,0 1.90899,-0.70424 2.125,-1.6875 l 6.89062,-31.89062 c 8.46161,-2.04098 16.42515,-5.26538 23.71875,-9.48438 l 29.54687,17.23438 c 0.864,0.50511 1.98313,0.42533 2.70313,-0.26563 l 17.04687,-16.39063 c 0.73976,-0.71415 0.85475,-1.84554 0.28126,-2.6875 l -18.92188,-27.6875 c 4.5835,-7.49053 8.03564,-15.68253 10.07812,-24.42187 l 32.46876,-7.57813 C 311.22068,206.91415 312,206.07506 312,205.09375 V 192 178.90625 c 0,-0.98131 -0.77928,-1.82045 -1.76562,-2.04687 l -32.46876,-7.57813 c -2.04248,-8.73935 -5.49461,-16.93135 -10.07812,-24.42187 l 18.92188,-27.6875 c 0.57359,-0.84197 0.4585,-1.97331 -0.28126,-2.6875 L 269.28125,98.09375 c -0.72,-0.69096 -1.83913,-0.77083 -2.70313,-0.26563 l -29.54687,17.23438 c -7.2936,-4.21901 -15.25714,-7.44338 -23.71875,-9.48438 L 206.42188,73.6875 C 206.20587,72.70426 205.34487,72 204.29688,72 H 192 Z M 192,128 a 64,64 0 0 1 64,64 64,64 0 0 1 -64,64 64,64 0 0 1 -64,-64 64,64 0 0 1 64,-64 z" />
</svg>
