<?xml version="1.0" encoding="UTF-8" standalone="no"?>
<svg
   id="svg2"
   width="70.000053"
   height="63.999966"
   version="1.0"
   sodipodi:docname="computer.svg"
   inkscape:version="1.3 (0e150ed6c4, 2023-07-21)"
   xmlns:inkscape="http://www.inkscape.org/namespaces/inkscape"
   xmlns:sodipodi="http://sodipodi.sourceforge.net/DTD/sodipodi-0.dtd"
   xmlns:xlink="http://www.w3.org/1999/xlink"
   xmlns="http://www.w3.org/2000/svg"
   xmlns:svg="http://www.w3.org/2000/svg"
   xmlns:rdf="http://www.w3.org/1999/02/22-rdf-syntax-ns#"
   xmlns:cc="http://creativecommons.org/ns#"
   xmlns:dc="http://purl.org/dc/elements/1.1/">
  <sodipodi:namedview
     pagecolor="#02334b"
     bordercolor="#000000"
     borderopacity="1"
     objecttolerance="10"
     gridtolerance="10"
     guidetolerance="10"
     inkscape:pageopacity="0"
     inkscape:pageshadow="2"
     inkscape:window-width="1920"
     inkscape:window-height="994"
     id="namedview24"
     showgrid="false"
     inkscape:zoom="7.524305"
     inkscape:cx="41.731429"
     inkscape:cy="41.000465"
     inkscape:window-x="0"
     inkscape:window-y="0"
     inkscape:window-maximized="1"
     inkscape:current-layer="svg2"
     inkscape:lockguides="true"
     inkscape:showpageshadow="2"
     inkscape:pagecheckerboard="true"
     inkscape:deskcolor="#02334b">
    <inkscape:grid
       type="xygrid"
       id="grid854"
       originx="0"
       originy="0"
       spacingy="1"
       spacingx="1"
       units="px"
       visible="false" />
  </sodipodi:namedview>
  <metadata
     id="metadata7">
    <rdf:RDF>
      <cc:Work
         rdf:about="">
        <dc:format>image/svg+xml</dc:format>
        <dc:type
           rdf:resource="http://purl.org/dc/dcmitype/StillImage" />
      </cc:Work>
    </rdf:RDF>
  </metadata>
  <defs
     id="defs5">
    <linearGradient
       inkscape:collect="always"
       id="linearGradient2">
      <stop
         style="stop-color:#07a8f9;stop-opacity:1;"
         offset="0"
         id="stop1" />
      <stop
         style="stop-color:#07a8f9;stop-opacity:0.01;"
         offset="1"
         id="stop2" />
    </linearGradient>
    <style
       id="current-color-scheme"
       type="text/css" />
    <radialGradient
       inkscape:collect="always"
       xlink:href="#linearGradient2"
       id="radialGradient861"
       cx="260"
       cy="1048.3622"
       fx="260"
       fy="1048.3622"
       r="14.666669"
       gradientTransform="matrix(1,0,0,0.99999857,0,0.00149969)"
       gradientUnits="userSpaceOnUse" />
    <radialGradient
       inkscape:collect="always"
       xlink:href="#linearGradient2"
       id="radialGradient871"
       cx="260"
       cy="1048.3622"
       fx="260"
       fy="1048.3622"
       r="14.666669"
       gradientTransform="matrix(1,0,0,0.99999857,0,0.00149969)"
       gradientUnits="userSpaceOnUse" />
    <radialGradient
       inkscape:collect="always"
       xlink:href="#linearGradient2"
       id="radialGradient879"
       cx="260"
       cy="1048.3622"
       fx="260"
       fy="1048.3622"
       r="14.666669"
       gradientTransform="matrix(1,0,0,0.99999857,0,0.00149969)"
       gradientUnits="userSpaceOnUse" />
    <radialGradient
       inkscape:collect="always"
       xlink:href="#linearGradient2"
       id="radialGradient887"
       cx="400.57144"
       cy="531.46466"
       fx="400.57144"
       fy="531.46466"
       r="14.666654"
       gradientTransform="matrix(1,0,0,0.99999876,0,6.5659421e-4)"
       gradientUnits="userSpaceOnUse" />
    <radialGradient
       inkscape:collect="always"
       xlink:href="#linearGradient2"
       id="radialGradient895"
       cx="400.57144"
       cy="531.46466"
       fx="400.57144"
       fy="531.46466"
       r="14.666654"
       gradientTransform="matrix(1,0,0,0.99999876,0,6.5659421e-4)"
       gradientUnits="userSpaceOnUse" />
    <radialGradient
       inkscape:collect="always"
       xlink:href="#linearGradient2"
       id="radialGradient903"
       cx="400.57144"
       cy="531.46466"
       fx="400.57144"
       fy="531.46466"
       r="14.666654"
       gradientTransform="matrix(1,0,0,0.99999876,-1.790404e-5,6.5659421e-4)"
       gradientUnits="userSpaceOnUse" />
  </defs>
  <g
     id="22-22-computer"
     transform="matrix(0.75000099,0,0,0.75000099,-273.42897,-345.59906)">
    <rect
       style="opacity:1;fill:url(#radialGradient895);fill-opacity:1;stroke:none"
       id="rect3074"
       width="29.333307"
       height="29.333271"
       x="385.90479"
       y="516.79803" />
    <path
       style="color:#31363b;fill:#000000;fill-opacity:1;stroke:none;stroke-width:0.88627392"
       class="ColorScheme-Text"
       d="m 391.63811,524.13134 v 12.40782 l 6.20384,-3e-5 v 1.77254 l -1.77248,5e-5 v 0.88625 h 8.86275 v -0.88625 l -1.77254,-5e-5 v -1.77254 l 6.20391,3e-5 v -12.40782 z m 0.88625,0.88624 h 15.95293 v 9.74903 h -15.95293 z m 6.20387,11.52155 h 3.54517 v 1.77254 h -3.54517 z"
       id="rect7235"
       inkscape:connector-curvature="0" />
  </g>
  <g
     transform="matrix(0.75,0,0,0.75,-168,-765.27168)"
     id="22-22-computer-laptop">
    <rect
       style="opacity:1;fill:url(#radialGradient871);fill-opacity:1;stroke:none"
       id="rect7292"
       width="29.333338"
       height="29.333296"
       x="245.33333"
       y="1033.6956" />
    <path
       style="color:#31363b;fill:#000000;fill-opacity:1;stroke:none;stroke-width:0.88332945"
       class="ColorScheme-Text"
       d="m 252.35,1041.1621 v 12.3668 h -0.88333 a 1.7666592,1.7666592 0 0 0 1.76664,1.7666 h 14.1333 a 1.7666592,1.7666592 0 0 0 1.76665,-1.7666 h -0.88335 v -12.3668 z m 0.88331,0.8836 h 14.1333 v 10.5998 h -14.1333 z"
       id="rect7296"
       inkscape:connector-curvature="0" />
  </g>
  <g
     transform="matrix(1.09091,0,0,1.09091,-382.98739,-531.78014)"
     id="computer">
    <rect
       y="516.79803"
       x="385.90479"
       height="29.333271"
       width="29.333307"
       id="rect3018"
       style="opacity:1;fill:url(#radialGradient903);fill-opacity:1;stroke:none" />
    <path
       style="color:#31363b;fill:#000000;fill-opacity:1;stroke:none;stroke-width:0.62503451"
       d="m 391.77145,524.07947 v 12.49326 h 6.87531 v 1.8753 h -1.87506 v 0.62494 h 7.50049 v -0.62494 h -1.87525 v -1.8753 h 6.87551 v -12.49326 z m 0.62494,0.62495 h 16.25105 v 10.61829 h -16.25105 z m 6.87555,11.86831 h 2.50002 v 1.8753 h -2.50002 z"
       id="path3020"
       class="ColorScheme-Text"
       inkscape:connector-curvature="0" />
  </g>
  <g
     id="computer-laptop"
     transform="matrix(1.0909105,0,0,1.0909105,-229.6367,-1127.6693)">
    <rect
       y="1033.6956"
       x="245.33333"
       height="29.333296"
       width="29.333338"
       id="rect3026"
       style="opacity:1;fill:url(#radialGradient879);fill-opacity:1;stroke:none" />
    <path
       style="color:#31363b;fill:#000000;fill-opacity:1;stroke:none;stroke-width:0.58331603"
       class="ColorScheme-Text"
       d="m 251.59996,1041.5789 v 11.0833 h -0.58331 v 0.5833 c 1e-5,0.6445 0.5223,1.1667 1.16665,1.1667 h 15.16615 c 0.64436,0 1.16672,-0.5222 1.16672,-1.1667 v -0.5833 h -0.58336 v -11.0833 z m 0.58334,0.5834 h 15.16615 v 9.9166 H 252.1833 Z m -0.58334,11.0832 h 16.33285 c 0,0.3223 -0.26112,0.5834 -0.58336,0.5834 H 252.1833 c -0.3222,0 -0.58334,-0.2611 -0.58334,-0.5834 z"
       id="path3028"
       inkscape:connector-curvature="0" />
  </g>
  <g
     id="16-16-computer"
     transform="matrix(0.54506989,0,0,0.54506989,-210.34508,-233.67977)">
    <rect
       style="opacity:1;fill:url(#radialGradient887);fill-opacity:1;stroke:none"
       id="rect3034"
       width="29.333307"
       height="29.333271"
       x="385.90479"
       y="516.79803" />
    <path
       id="path3036"
       style="color:#31363b;fill:#000000;fill-opacity:1;stroke:none;stroke-width:0.74193162"
       d="m 394.94079,537.99638 h 10.88933 v 1.36699 h -10.88933 z m 3.45854,-1.35542 h 3.95695 v 1.35541 h -3.95695 z m -7.54288,-13.60577 v 13.60576 h 19.04275 v -13.60576 z m 1.36197,1.35543 16.33405,10e-6 v 9.52795 h -16.33405 z"
       class="ColorScheme-Text"
       inkscape:connector-curvature="0" />
  </g>
  <g
     transform="matrix(0.5454565,0,0,0.5454565,-133.81866,-547.83604)"
     id="16-16-computer-laptop">
    <rect
       style="opacity:1;fill:url(#radialGradient861);fill-opacity:1;stroke:none"
       id="rect3042"
       width="29.333338"
       height="29.333296"
       x="245.33333"
       y="1033.6956" />
    <path
       class="ColorScheme-Text"
       id="path3044"
       d="m 252.71903,1041.9456 v 9.9823 h -2.90322 c 0,1.5555 1.87957,2.851 1.87957,2.851 h 16.07394 c 0,0 1.87953,-1.2955 1.87953,-2.851 h -2.67068 v -9.9823 z m 1.42601,1.426 h 11.40724 v 7.1299 h -11.40724 z"
       style="color:#31363b;fill:#000000;fill-opacity:1;stroke:none;stroke-width:0.77776939"
       inkscape:connector-curvature="0" />
  </g>
</svg>
