<?xml version="1.0" encoding="UTF-8" standalone="no"?>
<svg
   inkscape:version="1.3 (0e150ed6c4, 2023-07-21)"
   sodipodi:docname="start.svg"
   id="svg12"
   version="1.1"
   height="32"
   width="32"
   xmlns:inkscape="http://www.inkscape.org/namespaces/inkscape"
   xmlns:sodipodi="http://sodipodi.sourceforge.net/DTD/sodipodi-0.dtd"
   xmlns:xlink="http://www.w3.org/1999/xlink"
   xmlns="http://www.w3.org/2000/svg"
   xmlns:svg="http://www.w3.org/2000/svg"
   xmlns:rdf="http://www.w3.org/1999/02/22-rdf-syntax-ns#"
   xmlns:cc="http://creativecommons.org/ns#"
   xmlns:dc="http://purl.org/dc/elements/1.1/">
  <metadata
     id="metadata16">
    <rdf:RDF>
      <cc:Work
         rdf:about="">
        <dc:format>image/svg+xml</dc:format>
        <dc:type
           rdf:resource="http://purl.org/dc/dcmitype/StillImage" />
      </cc:Work>
    </rdf:RDF>
  </metadata>
  <sodipodi:namedview
     inkscape:document-rotation="0"
     inkscape:lockguides="true"
     inkscape:current-layer="svg12"
     inkscape:window-maximized="1"
     inkscape:window-y="0"
     inkscape:window-x="0"
     inkscape:cy="22.194198"
     inkscape:cx="15.425755"
     inkscape:zoom="9.5295176"
     showgrid="true"
     id="namedview14"
     inkscape:window-height="994"
     inkscape:window-width="1920"
     inkscape:pageshadow="2"
     inkscape:pageopacity="0"
     guidetolerance="10"
     gridtolerance="10"
     objecttolerance="10"
     borderopacity="1"
     bordercolor="#000000"
     pagecolor="#02334b"
     inkscape:showpageshadow="2"
     inkscape:pagecheckerboard="true"
     inkscape:deskcolor="#02334b">
    <inkscape:grid
       id="grid1"
       units="px"
       originx="0"
       originy="0"
       spacingx="1"
       spacingy="1"
       empcolor="#0099e5"
       empopacity="0.30196078"
       color="#0099e5"
       opacity="0.14902"
       empspacing="5"
       dotted="false"
       gridanglex="30"
       gridanglez="30"
       visible="true" />
  </sodipodi:namedview>
  <defs
     id="defs7386">
    <linearGradient
       inkscape:collect="always"
       id="linearGradient4">
      <stop
         style="stop-color:#0586c7;stop-opacity:1;"
         offset="0"
         id="stop3" />
      <stop
         style="stop-color:#058bce;stop-opacity:0.5;"
         offset="1"
         id="stop4" />
    </linearGradient>
    <linearGradient
       inkscape:collect="always"
       id="linearGradient2">
      <stop
         style="stop-color:#0586c7;stop-opacity:1;"
         offset="0"
         id="stop1" />
      <stop
         style="stop-color:#058bce;stop-opacity:0.5;"
         offset="1"
         id="stop2" />
    </linearGradient>
    <style
       type="text/css"
       id="current-color-scheme">&#10;   .ColorScheme-Text { color:#d3dae3; } .ColorScheme-Highlight { color:#5294e2; } .ColorScheme-ButtonBackground { color:#d3dae3; }&#10;  </style>
    <radialGradient
       gradientUnits="userSpaceOnUse"
       gradientTransform="matrix(1.1998832,0,0,1.1998856,-3.1992982,-2.5981966)"
       r="10.000977"
       fy="15.499997"
       fx="16.000977"
       cy="15.499997"
       cx="16.000977"
       id="radialGradient860"
       xlink:href="#linearGradient4"
       inkscape:collect="always" />
    <radialGradient
       gradientUnits="userSpaceOnUse"
       gradientTransform="matrix(0.99914623,0,0,0.99914624,0.00256131,0.02207614)"
       r="8.0068359"
       fy="10.987305"
       fx="11.006836"
       cy="10.987305"
       cx="11.006836"
       id="radialGradient862"
       xlink:href="#linearGradient2"
       inkscape:collect="always" />
    <radialGradient
       gradientUnits="userSpaceOnUse"
       gradientTransform="matrix(0.74935904,0,0,0.74935905,-0.2480861,-0.233442)"
       r="8.0068359"
       fy="10.987305"
       fx="11.006836"
       cy="10.987305"
       cx="11.006836"
       id="radialGradient862-1"
       xlink:href="#linearGradient4"
       inkscape:collect="always" />
  </defs>
  <g
     id="22-22-start-here-kde"
     transform="translate(37,3)">
    <rect
       style="opacity:0.00100002;vector-effect:none;fill:#000000;fill-opacity:1;stroke:none;stroke-width:2.71574;stroke-linecap:round;stroke-linejoin:round;stroke-miterlimit:4;stroke-dasharray:none;stroke-dashoffset:0;stroke-opacity:1"
       y="0"
       x="0"
       height="22"
       width="22"
       id="rect849" />
    <g
       id="g4500">
      <path
         style="fill:url(#radialGradient862);fill-opacity:1;stroke-width:0.99878"
         d="M 12.007928,3.0000002 8.9948774,3.5245584 V 13.894821 L 11.992316,13.508715 11.976704,8.8344914 15.512746,14.007922 18.98634,13.508715 14.989755,8.1539308 19,3.6610606 15.483474,3.0136503 11.976704,7.5065205 Z M 5.6715453,5.6481415 c -0.028947,0.00241 -0.056255,0.015085 -0.078058,0.03705 L 4.5592146,6.7304081 c -0.044912,0.045228 -0.052402,0.1157382 -0.017563,0.1696526 L 5.7905843,8.8169406 C 5.5549761,9.2347587 5.3769533,9.6928732 5.2617392,10.172212 L 3.1053788,10.700671 C 3.0455236,10.715347 3,10.769421 3,10.831322 v 0.680561 0.680561 c 0,0.0619 0.045524,0.115975 0.1053788,0.130652 l 2.1563604,0.528458 c 0.1152141,0.47934 0.2932369,0.937455 0.528845,1.355272 l -1.2489327,1.91688 c -0.034838,0.05391 -0.027349,0.124425 0.017563,0.169652 l 1.0342724,1.045217 c 0.043606,0.04393 0.1112612,0.04755 0.1639224,0.0156 l 1.957312,-1.199269 c 0.3839999,0.223546 0.984668,0.403397 1.4226124,0.522608 l 0.4585926,2.213285 C 9.6086653,18.954699 9.6594503,19 9.722771,19 h 0.770826 0.770825 c 0.06333,0 0.114105,-0.0453 0.126846,-0.109201 l 0.458592,-2.213285 c 0.437945,-0.119211 1.038614,-0.299062 1.422612,-0.522608 l 1.957312,1.199268 c 0.05266,0.03195 0.120319,0.02833 0.163923,-0.0156 l 1.034272,-1.045217 c 0.04491,-0.04523 0.05241,-0.115738 0.01757,-0.169652 l -1.040126,-1.597076 -0.128797,0.0195 -0.729845,-1.068616 c -0.745428,1.561485 -2.321859,2.556557 -4.053177,2.55844 -2.4831598,0 -4.4961583,-2.011527 -4.4961583,-4.49287 0.00143,-1.705419 0.9690139,-3.2629982 2.4978586,-4.0209622 V 6.5412555 C 8.2103094,6.6362069 7.9302756,6.7433759 7.7147213,6.8688607 L 5.7574094,5.6695919 c -0.026331,-0.015975 -0.056916,-0.023853 -0.085864,-0.02145 z"
         class="ColorScheme-Text"
         id="path10" />
    </g>
  </g>
  <g
     id="start-here-kde"
     transform="translate(37,3)">
    <rect
       style="opacity:0.00100002;vector-effect:none;fill:#000000;fill-opacity:1;stroke:none;stroke-width:3.22818;stroke-linecap:round;stroke-linejoin:round;stroke-miterlimit:4;stroke-dasharray:none;stroke-dashoffset:0;stroke-opacity:1"
       y="-3"
       x="-37"
       height="32"
       width="32"
       id="rect860" />
    <g
       transform="translate(-37,-3)"
       id="g4502">
      <path
         style="fill:url(#radialGradient860);fill-opacity:1;stroke-width:1.17096"
         d="M 18.398596,4 13.599061,4.6919664 V 21.22772 l 4.799535,-1.227672 v -6.38842 l 4.799536,7.53128 4.799524,-1.71429 L 21.998254,12.57145 28,5.1450918 23.343427,4 18.398596,11.49555 Z M 8.626103,8.4843866 c -0.11348,0 -0.226986,0.042105 -0.314024,0.1250006 L 6.4255444,10.406272 c -0.1740633,0.165792 -0.1321588,0.402628 0,0.600446 l 1.9521506,2.919654 c -0.144631,0.28596 -0.269877,0.58046 -0.37496,0.881694 -0.00469,0.01294 -0.011871,0.02494 -0.016398,0.038 L 4.4452696,15.596013 C 4.204967,15.646883 4,15.785663 4,16.020129 v 1.122764 1.122764 c 0,0.234466 0.204967,0.373248 0.4452687,0.424113 l 3.541061,0.750002 c 0.0077,0.0221 0.020144,0.04266 0.028123,0.06474 0.102284,0.292617 0.223608,0.578886 0.363245,0.857145 l -1.9521558,2.917416 c -0.1321586,0.197812 -0.1740633,0.434655 0,0.600447 l 1.8865408,1.796882 c 0.174063,0.165791 0.454002,0.165791 0.628063,0 l 3.0606413,-1.857151 c 0.300872,0.139379 0.610869,0.260157 0.928025,0.361617 0.02084,0.0071 0.04013,0.01774 0.06083,0.02448 l 0.785079,3.370548 C 13.774765,27.810362 13.97388,28 14.220048,28 h 2.664573 c 0.246168,0 0.391878,-0.195225 0.445267,-0.424105 l 0.785074,-3.47323 c 0.360701,-0.129151 0.710839,-0.283597 1.047568,-0.462047 l 2.987981,2.035717 c 0.174069,0.165796 0.454012,0.165796 0.62807,0 l 1.886544,-1.796878 c 0.174054,-0.165788 0.132142,-0.402638 0,-0.600452 l -1.136607,-1.642852 -0.11952,0.04241 c -0.270275,0.09665 -0.574545,-0.0032 -0.724149,-0.238843 l -1.195186,-1.875015 c -0.995833,2.268799 -3.347598,3.863847 -6.090819,3.863847 -3.644725,0 -6.599347,-2.814207 -6.599347,-6.285723 0,-2.663924 1.743182,-4.935277 4.199578,-5.850464 v -1.252234 l -0.0088,0.04023 c -0.0265,0.0085 -0.05085,0.02237 -0.0773,0.03124 -0.312958,0.09894 -0.619012,0.216788 -0.916315,0.352688 L 8.940156,8.609385 C 8.853067,8.526488 8.739585,8.4843847 8.626077,8.4843847 Z"
         class="ColorScheme-Text"
         id="path10-7" />
    </g>
  </g>
  <g
     id="16-16-start-here-kde"
     transform="translate(-20,6)">
    <path
       style="fill:none"
       d="M 0,0 V 16 H 16 V 0 Z"
       id="path17" />
    <path
       style="color:#d3dae3;fill:url(#radialGradient862-1);fill-opacity:1;stroke-width:0.749092"
       d="M 8.7559325,2 6.496146,2.39342 v 7.777686 L 8.7442232,9.881535 8.7325212,6.37586 11.38454,10.255939 13.989737,9.881535 10.992301,5.865447 13.99998,2.495787 11.362585,2.010243 8.7325195,5.379883 Z M 4.003649,3.986099 c -0.02171,0.0024 -0.042183,0.01138 -0.05854,0.02785 L 3.1694052,4.797865 c -0.033677,0.03396 -0.039299,0.08685 -0.013165,0.127233 L 4.0929379,6.36276 C 3.9162323,6.67612 3.7827141,7.019705 3.6963041,7.379207 L 2.0790354,7.775553 C 2.0341434,7.786633 2,7.827103 2,7.873533 v 0.510421 0.510421 c 0,0.04639 0.03414,0.08696 0.079035,0.09798 l 1.617268,0.396347 c 0.086412,0.35951 0.2199281,0.703087 0.3966346,1.016453 L 3.156236,11.842809 c -0.026127,0.04043 -0.02051,0.09332 0.013163,0.127239 l 0.7757046,0.783912 c 0.032704,0.03294 0.083451,0.03567 0.1229414,0.0117 l 1.4679828,-0.899459 c 0.2879997,0.167659 0.7384996,0.302547 1.0669587,0.391956 l 0.3439438,1.659951 c 0.00955,0.04792 0.047646,0.08189 0.095136,0.08189 H 7.6201852 8.198304 c 0.04749,0 0.085581,-0.03398 0.095133,-0.0819 L 8.6373809,12.258134 C 8.965839,12.168724 9.4163403,12.033839 9.704338,11.866178 l 1.467987,0.899451 c 0.03946,0.02396 0.09025,0.02125 0.122933,-0.01169 l 0.775704,-0.783914 c 0.03371,-0.03392 0.03925,-0.08681 0.01317,-0.127239 l -0.7801,-1.197803 -0.0966,0.01463 -0.547375,-0.801462 c -0.559071,1.171112 -1.7413961,1.917416 -3.0398831,1.918828 -1.8623691,0 -3.3721159,-1.508647 -3.3721159,-3.369646 10e-4,-1.279063 0.7267595,-2.447257 1.8733919,-3.015717 V 4.655953 C 5.907704,4.727233 5.6976795,4.807553 5.5360132,4.901668 L 4.0680341,4.002212 c -0.01974,-0.01197 -0.042684,-0.01785 -0.064389,-0.01615 z"
       class="ColorScheme-Text"
       id="path10-2" />
  </g>
</svg>
