<?xml version="1.0" encoding="UTF-8" standalone="no"?>
<!-- Generator: Adobe Illustrator 13.0.2, SVG Export Plug-In . SVG Version: 6.00 Build 14948)  -->

<svg
   version="1.1"
   id="KDE"
   x="0px"
   y="0px"
   width="24"
   height="10"
   viewBox="0 0 23.999998 10"
   enable-background="new 0 0 779.617 170.079"
   xml:space="preserve"
   inkscape:version="1.3 (0e150ed6c4, 2023-07-21)"
   sodipodi:docname="branding.svg"
   inkscape:export-xdpi="41.27"
   inkscape:export-ydpi="41.27"
   xmlns:inkscape="http://www.inkscape.org/namespaces/inkscape"
   xmlns:sodipodi="http://sodipodi.sourceforge.net/DTD/sodipodi-0.dtd"
   xmlns="http://www.w3.org/2000/svg"
   xmlns:svg="http://www.w3.org/2000/svg"
   xmlns:rdf="http://www.w3.org/1999/02/22-rdf-syntax-ns#"
   xmlns:cc="http://creativecommons.org/ns#"
   xmlns:dc="http://purl.org/dc/elements/1.1/">&#10;  <style
   id="current-color-scheme"
   type="text/css">.ColorScheme-Text { color:#eceff4; }&#10;</style>&#10;  <metadata
   id="metadata27"><rdf:RDF><cc:Work
       rdf:about=""><dc:format>image/svg+xml</dc:format><dc:type
         rdf:resource="http://purl.org/dc/dcmitype/StillImage" /></cc:Work></rdf:RDF></metadata><defs
   id="defs25"><inkscape:perspective
     sodipodi:type="inkscape:persp3d"
     inkscape:vp_x="0 : 65.839496 : 1"
     inkscape:vp_y="0 : 999.99999 : 0"
     inkscape:vp_z="779.61698 : 65.839496 : 1"
     inkscape:persp3d-origin="389.80849 : 37.492997 : 1"
     id="perspective29" /><inkscape:perspective
     id="perspective3135"
     inkscape:persp3d-origin="0.49999998 : -18.866668 : 1"
     inkscape:vp_z="0.99999995 : -18.700001 : 1"
     inkscape:vp_y="0 : 999.99999 : 0"
     inkscape:vp_x="0 : -18.700001 : 1"
     sodipodi:type="inkscape:persp3d" /><inkscape:perspective
     id="perspective3415"
     inkscape:persp3d-origin="0.49999998 : -18.866668 : 1"
     inkscape:vp_z="0.99999995 : -18.700001 : 1"
     inkscape:vp_y="0 : 999.99999 : 0"
     inkscape:vp_x="0 : -18.700001 : 1"
     sodipodi:type="inkscape:persp3d" /></defs><sodipodi:namedview
   pagecolor="#02334b"
   bordercolor="#000000"
   borderopacity="1"
   objecttolerance="10"
   gridtolerance="10"
   guidetolerance="10"
   inkscape:pageopacity="1"
   inkscape:pageshadow="2"
   inkscape:window-width="1920"
   inkscape:window-height="994"
   id="namedview23"
   showgrid="true"
   inkscape:zoom="22.454908"
   inkscape:cx="10.599019"
   inkscape:cy="11.289291"
   inkscape:window-x="0"
   inkscape:window-y="0"
   inkscape:window-maximized="1"
   inkscape:current-layer="g2"
   showguides="true"
   inkscape:guide-bbox="true"
   inkscape:pagecheckerboard="true"
   inkscape:lockguides="false"
   inkscape:showpageshadow="true"
   inkscape:deskcolor="#02334b"><inkscape:grid
     type="xygrid"
     id="grid832"
     originx="-12.117595"
     originy="-4"
     spacingy="1"
     spacingx="1"
     units="px"
     visible="true" /></sodipodi:namedview><g
   id="text3090"
   style="font-style:normal;font-variant:normal;font-weight:500;font-stretch:normal;font-size:14px;line-height:125%;font-family:Ubuntu;-inkscape-font-specification:'Ubuntu Medium';letter-spacing:0px;word-spacing:0px;fill:#f07746;fill-opacity:1;stroke:none"
   transform="translate(-33.094734,-8.4706162)" /><g
   id="g2"><g
     id="brilliant"
     transform="translate(0.49999984)"><text
       xml:space="preserve"
       style="fill-opacity:1;fill:#00aad4;white-space:pre;font-variant-east-asian:normal;font-variant-numeric:normal;font-variant-caps:normal;font-variant-ligatures:normal;-inkscape-font-specification:'Noto Sans Ultra-Bold Italic';font-family:'Noto Sans';line-height:1.25;font-size:4.22682px;font-stretch:normal;font-weight:800;font-variant:normal;font-style:italic;"
       x="-0.10989717"
       y="6.1162009"
       id="text13306"
       transform="scale(1.0186628,0.98167914)"><tspan
         id="tspan13304"
         x="-0.10989717"
         y="6.1162009"
         style="font-style:italic;font-variant:normal;font-weight:800;font-stretch:normal;font-size:4.22682px;line-height:1.25;font-family:'Noto Sans';-inkscape-font-specification:'Noto Sans Ultra-Bold Italic';font-variant-ligatures:normal;font-variant-caps:normal;font-variant-numeric:normal;font-variant-east-asian:normal;fill:#00aad4;fill-opacity:1;stroke-width:0.759535">KDE-Story</tspan></text><path
       style="color:#d3dae3;fill:#008fb2;fill-opacity:1;stroke-width:0.146364"
       d="M 21.799786,1 21.199845,1.086496 V 3.1534627 L 21.799786,3.0000038 V 2.201452 L 22.399727,3.1428609 22.999667,2.9285747 22.249742,2.07143 22.99996,1.1431363 22.417889,1 21.799786,1.9369426 Z m -1.22156,0.5605477 c -0.01418,0 -0.02837,0.00527 -0.03925,0.015625 l -0.235817,0.2246101 c -0.02176,0.020725 -0.01652,0.050328 0,0.075056 l 0.244019,0.3649564 c -0.01808,0.035745 -0.03374,0.072557 -0.04687,0.1102117 -5.84e-4,0.00163 -0.0015,0.00312 -0.002,0.00474 L 20.05568,2.4494949 C 20.02563,2.4558549 20,2.4732059 20,2.5025149 v 0.1403446 0.1403454 c 0,0.029308 0.02562,0.046655 0.05566,0.053015 l 0.442632,0.09375 c 9.56e-4,0.00276 0.0025,0.00534 0.0035,0.00809 0.01279,0.036577 0.02795,0.072361 0.04541,0.107143 l -0.244019,0.3646773 c -0.01652,0.024725 -0.02176,0.054331 0,0.075055 l 0.235818,0.2246099 c 0.02176,0.020724 0.05675,0.020724 0.07851,0 l 0.382545,-0.2321432 c 0.03761,0.017421 0.07636,0.032519 0.116003,0.045201 0.0026,8.841e-4 0.005,0.00223 0.0076,0.00306 l 0.09814,0.4213172 c 7e-6,0.029305 0.0249,0.05301 0.05567,0.05301 h 0.333071 c 0.03077,0 0.04899,-0.024403 0.05566,-0.053014 l 0.09814,-0.4341502 c 0.04509,-0.016145 0.08886,-0.03545 0.130946,-0.057756 l 0.373497,0.2544649 c 0.02176,0.020724 0.05675,0.020724 0.07851,0 l 0.235818,-0.2246095 c 0.02176,-0.020724 0.01652,-0.05033 0,-0.075056 l -0.142076,-0.2053566 -0.01494,0.00531 c -0.03378,0.012081 -0.07182,-4.011e-4 -0.09052,-0.029856 L 22.186167,2.9455918 c -0.124479,0.2835995 -0.418449,0.4829806 -0.761351,0.4829806 -0.45559,0 -0.824917,-0.3517757 -0.824917,-0.7857147 0,-0.3329899 0.217897,-0.6169088 0.524946,-0.7313071 V 1.7550214 l -0.0011,0.00503 c -0.0033,0.00105 -0.0064,0.00279 -0.0097,0.00391 -0.03912,0.012366 -0.07738,0.027099 -0.114539,0.044087 L 20.617483,1.5761856 c -0.01089,-0.010363 -0.02507,-0.015624 -0.03926,-0.015624 z"
       class="ColorScheme-Text"
       id="path10-7" /></g></g></svg>
